<svg version="1.1" id="Layer_1" xmlns="http://www.w3.org/2000/svg" xmlns:xlink="http://www.w3.org/1999/xlink" x="0px" y="0px"
	 width="100%" viewBox="0 0 769 198" enable-background="new 0 0 769 198" xml:space="preserve">

<path fill="#e8e6e3" opacity="1.000000" stroke="none"
	d="
M650.848145,106.868370 
	C656.889771,99.345726 662.945618,91.834450 668.967346,84.295921 
	C672.266174,80.166130 671.470215,71.532074 667.787231,68.455833 
	C658.839905,60.982613 649.572876,53.817314 641.263794,45.681168 
	C635.684509,40.217960 630.956665,37.462311 623.310608,41.697628 
	C620.317322,43.355690 618.879211,44.288204 618.905029,47.859180 
	C619.112610,76.506805 619.110107,105.155968 619.152527,133.804688 
	C619.155212,135.629837 618.982544,137.454697 618.915100,139.280563 
	C618.658752,146.223053 617.710327,153.235504 618.389832,160.086014 
	C618.907715,165.307419 624.641602,163.328568 627.726257,163.505951 
	C630.570801,163.669525 635.748840,165.184387 636.693054,160.217636 
	C637.455261,156.207748 636.772339,151.927185 636.767395,147.766632 
	C636.754944,137.275940 636.763245,126.785225 636.763245,115.828972 
	C642.957764,128.596909 648.978516,141.182083 655.155334,153.690155 
	C661.753479,167.051300 657.975220,166.154877 672.804993,158.975693 
	C673.097595,158.833984 673.444946,158.762177 673.684326,158.560120 
	C675.777710,156.793335 676.554443,155.297241 674.807190,152.308365 
	C667.564514,139.919281 660.728760,127.291016 653.834839,114.700600 
	C652.616699,112.475967 651.833862,110.013000 650.848145,106.868370 
M598.858948,119.491272 
	C600.351807,116.657883 602.343567,113.969383 603.218506,110.956543 
	C604.474915,106.630714 606.002625,101.920372 605.419250,97.646500 
	C604.762695,92.836662 602.004089,88.278114 599.957520,83.700706 
	C594.972534,72.551102 589.540161,61.588902 584.919434,50.292923 
	C581.181458,41.154648 581.576538,41.291649 571.661499,40.858055 
	C566.800720,40.645489 564.783020,41.999046 563.005493,46.755428 
	C558.031677,60.064678 551.979919,72.966644 546.673645,86.158134 
	C544.236389,92.217430 539.461975,97.946068 541.320923,104.951172 
	C542.799438,110.522484 545.424011,115.821457 547.832581,121.107956 
	C554.050354,134.755371 561.403625,147.932892 564.658386,162.598465 
	C568.821777,163.027161 572.892456,163.727844 576.959595,163.707169 
	C578.320496,163.700256 580.319397,162.144745 580.927856,160.799942 
	C587.015015,147.345123 592.872681,133.786453 598.858948,119.491272 
M412.437836,58.118351 
	C405.775299,51.288277 399.112732,44.458199 392.838623,38.026367 
	C388.605194,39.606750 385.283203,40.927040 381.905151,42.083511 
	C379.005310,43.076275 377.759857,44.810635 378.090759,47.999767 
	C378.635559,53.250965 379.107513,58.534328 379.153046,63.808071 
	C379.286774,79.303055 379.194275,94.799988 379.192871,110.296158 
	C379.191345,127.702324 379.192566,145.108490 379.192566,163.846207 
	C383.071625,163.846207 387.787964,163.642365 392.477203,163.911148 
	C396.183899,164.123611 397.037384,162.522308 396.880615,159.182343 
	C396.422272,149.418045 396.355164,139.633026 395.768982,129.878098 
	C395.496338,125.340248 397.295563,122.097443 400.224609,118.998192 
	C409.316498,109.377922 418.336548,99.689316 427.334442,89.980820 
	C430.863739,86.172798 430.688690,77.642975 427.139648,73.875412 
	C422.376221,68.818733 417.621826,63.753571 412.437836,58.118351 
M687.243103,62.540199 
	C687.243103,96.240242 687.243103,129.940292 687.243103,163.969833 
	C700.595764,163.969833 714.545837,164.086151 728.487366,163.797089 
	C729.945984,163.766861 732.374207,161.487854 732.590088,159.996994 
	C733.167786,156.007065 732.786926,151.878342 732.786926,147.688339 
	C723.042603,148.208374 714.079102,148.686752 704.458252,149.200195 
	C704.458252,135.478973 704.458252,122.453621 704.458252,109.294601 
	C707.890564,109.481026 711.538452,109.738861 715.190857,109.866280 
	C725.876465,110.239052 725.877197,110.218689 725.837402,99.506287 
	C725.836182,99.173126 725.791565,98.833618 725.839722,98.507797 
	C726.370361,94.917854 724.677124,93.825615 721.268616,93.936386 
	C715.526306,94.122993 709.773560,93.987518 704.644043,93.987518 
	C704.644043,81.338951 704.644043,69.167625 704.644043,56.312485 
	C711.724731,56.856853 717.946411,57.541859 724.180786,57.687641 
	C726.033691,57.730968 728.851746,56.750114 729.580505,55.369228 
	C730.730225,53.190887 730.595398,50.286598 730.811646,47.673656 
	C731.247742,42.404991 730.081665,41.067429 724.810974,41.166634 
	C714.873108,41.353668 704.938782,41.722996 695.001953,41.976063 
	C692.092346,42.050167 689.179260,41.987457 685.870911,41.987457 
	C686.366089,49.053230 686.804199,55.304558 687.243103,62.540199 
M441.133698,152.483795 
	C441.133698,156.237671 441.133698,159.991547 441.133698,163.829620 
	C452.666321,163.829620 463.635895,163.838333 474.605438,163.827362 
	C487.479218,163.814499 486.749115,165.534470 487.174652,152.126846 
	C487.331390,147.187180 485.457794,147.273895 481.805267,147.654892 
	C475.419220,148.321060 468.991730,148.750961 462.575989,148.831039 
	C461.338989,148.846481 459.014374,146.826828 458.989105,145.705460 
	C458.724213,133.951019 458.825500,122.188309 458.825500,109.999115 
	C459.467529,109.913048 460.819824,109.573303 462.170410,109.579712 
	C466.650543,109.600952 471.135834,109.641388 475.607819,109.883202 
	C478.432526,110.035927 480.001831,109.276726 480.066742,106.132584 
	C480.123993,103.361198 480.971497,100.568092 480.760071,97.839592 
	C480.536560,94.955223 479.478302,93.115685 475.408813,93.692963 
	C469.789124,94.490135 463.971649,93.892921 458.629028,93.892921 
	C458.629028,81.452812 458.629028,69.300636 458.629028,56.346989 
	C465.714294,56.883163 471.913757,57.584831 478.124207,57.701832 
	C480.438599,57.745426 484.386780,59.756477 484.760345,55.049328 
	C485.098236,50.791981 484.831787,46.486668 484.831787,42.128540 
	C469.816681,42.128540 455.266937,42.128540 441.144623,42.128540 
	C441.144623,79.248108 441.144623,115.369812 441.133698,152.483795 
M326.172760,144.495224 
	C325.832428,150.855789 325.492096,157.216339 325.138092,163.832779 
	C329.898834,163.832779 334.187347,163.833267 338.475830,163.832642 
	C342.285767,163.832077 344.107971,162.297409 343.920074,158.122955 
	C343.391144,146.370773 343.460876,134.587097 342.747711,122.849083 
	C342.091431,112.047844 345.258270,102.170052 349.040863,92.417633 
	C354.464630,78.433937 360.069702,64.515388 365.916748,50.704239 
	C367.630127,46.657108 366.236206,44.799679 362.767487,43.541275 
	C360.025330,42.546444 357.044373,42.080208 354.471375,40.781208 
	C351.164703,39.111832 350.099854,41.270626 349.432007,43.443066 
	C347.206177,50.683712 345.371887,58.044323 343.169891,65.292839 
	C340.773468,73.181419 338.133881,80.996132 335.289276,89.806351 
	C329.815338,72.571053 324.649139,56.304836 319.352356,39.627365 
	C315.277466,41.239235 311.910156,43.164188 308.305695,43.859104 
	C302.790802,44.922329 303.258026,48.335411 304.647552,51.877331 
	C309.545929,64.362968 314.865814,76.684334 319.695038,89.195679 
	C323.370178,98.717102 327.179474,108.168793 326.279205,118.890099 
	C325.594604,127.043503 326.161102,135.301956 326.172760,144.495224 
M123.840378,69.511322 
	C123.825272,66.179459 124.001129,62.832897 123.746208,59.519478 
	C123.435104,55.475842 125.520576,54.564709 128.911591,55.030376 
	C129.873413,55.162457 130.812500,55.731102 131.751953,55.706993 
	C135.456741,55.611927 141.918579,56.282700 142.348099,54.996487 
	C143.699051,50.950958 143.242981,46.057587 142.386429,41.709156 
	C142.197113,40.748047 137.488815,40.290768 134.854279,40.262543 
	C121.328621,40.117615 107.798431,40.321182 94.274925,40.096443 
	C90.617409,40.035660 88.435455,41.080757 88.208435,44.746754 
	C87.985092,48.353264 88.159706,51.984421 88.159706,56.189014 
	C94.769936,55.836269 100.910065,55.508610 107.065773,55.180119 
	C107.414543,62.741901 107.950645,69.834984 108.023193,76.932800 
	C108.152504,89.585495 108.220444,102.246407 107.911049,114.894020 
	C107.546967,129.776932 106.695557,144.647659 106.266815,159.529770 
	C106.235138,160.629379 107.839378,162.676620 108.799614,162.749588 
	C113.125038,163.078247 117.503853,163.030106 121.839882,162.751495 
	C123.907051,162.618668 125.267456,161.502884 124.979683,158.770905 
	C124.409782,153.360413 124.081276,147.902191 124.048111,142.461304 
	C123.901917,118.477028 123.896393,94.491905 123.840378,69.511322 
M265.504211,40.987629 
	C259.755066,40.697838 254.004974,40.425014 248.257126,40.111538 
	C245.098694,39.939278 243.090866,40.997368 243.135452,44.533150 
	C243.302139,57.750580 241.375366,56.201969 253.737534,55.790150 
	C255.054596,55.746269 256.461456,55.899643 257.667816,55.491737 
	C261.562469,54.174824 263.107941,55.219837 263.045074,59.518009 
	C262.622345,88.406494 262.358673,117.297287 262.018524,146.187042 
	C262.007050,147.162140 261.608612,148.132889 261.598938,149.107742 
	C261.556519,153.367813 260.812500,157.867737 262.008820,161.762909 
	C262.443024,163.176727 267.578339,163.147324 270.569214,163.773758 
	C270.728882,163.807205 270.893707,163.815567 271.056061,163.836487 
	C277.083832,164.612839 280.096710,161.792191 279.907990,155.804276 
	C279.547943,144.382187 279.158783,132.957870 279.045135,121.531845 
	C278.856506,102.564362 278.830048,83.594765 278.852722,64.626190 
	C278.856506,61.450539 279.453552,58.275597 279.821228,54.660419 
	C281.969788,55.133202 283.370544,55.476032 284.785065,55.747238 
	C296.465118,57.986713 298.032104,56.576111 298.105347,45.074322 
	C298.131653,40.939796 296.531189,39.922901 292.787506,40.106171 
	C284.032410,40.534771 275.264893,40.709873 265.504211,40.987629 
M521.640320,47.037670 
	C519.402771,50.629391 517.118042,54.192719 514.936279,57.817993 
	C507.409851,70.323746 499.415192,82.590149 492.718933,95.527443 
	C490.679382,99.467911 490.613983,106.051376 492.508881,110.075600 
	C496.681274,118.936676 502.756866,126.890541 507.909485,135.304199 
	C513.077271,143.742584 518.078064,152.283340 523.129089,160.792877 
	C524.782837,163.578903 526.467407,166.559952 530.241699,163.787918 
	C533.423584,161.451035 536.502441,158.902008 539.236938,156.070312 
	C540.090637,155.186279 540.388977,152.614120 539.731567,151.596329 
	C530.751221,137.694214 521.854675,123.719055 512.281006,110.227768 
	C508.083069,104.311928 507.547485,99.559288 511.621521,93.445236 
	C520.441895,80.208107 528.768311,66.640953 537.249573,53.179047 
	C541.124817,47.028011 541.074219,46.996101 535.055725,43.087193 
	C526.636414,37.619007 526.636414,37.619007 521.640320,47.037670 
M67.630051,71.084312 
	C54.535748,79.053413 41.455402,87.045586 28.339638,94.979195 
	C23.697241,97.787331 23.654366,106.058594 28.370008,108.864250 
	C42.495232,117.268303 56.610378,125.689819 70.784218,134.011246 
	C74.077888,135.944962 77.075844,135.719360 78.867943,131.738525 
	C79.867508,129.518127 80.814888,127.270096 81.915894,125.100548 
	C83.316986,122.339699 83.298996,120.687439 79.610954,119.848473 
	C76.338417,119.104027 73.165604,117.619133 70.161865,116.052528 
	C61.557732,111.565063 53.061829,106.870094 44.523373,102.256714 
	C44.498245,101.592758 44.473114,100.928802 44.447987,100.264847 
	C56.751041,94.071053 69.054100,87.877258 81.718132,81.501740 
	C81.765373,71.194511 76.436752,66.537422 67.630051,71.084312 
M203.725479,96.158203 
	C203.477203,95.937576 203.255432,95.673882 202.976868,95.502502 
	C188.743423,86.746223 174.539749,77.940506 160.237305,69.298279 
	C157.473099,67.628014 154.503174,67.668022 152.711823,71.031921 
	C150.794678,74.632088 149.041779,78.319710 147.707718,80.988029 
	C161.142090,87.926964 173.458542,94.288490 186.912399,101.237495 
	C174.112488,111.003616 161.251862,116.612274 147.589630,121.831764 
	C148.623505,124.666557 149.356781,127.349274 150.548141,129.810226 
	C153.439346,135.782562 155.791580,136.451675 161.454330,133.078094 
	C172.915985,126.249809 184.439590,119.518585 195.760666,112.463364 
	C205.799454,106.207245 206.027771,105.412666 203.725479,96.158203 
z"/>
<path fill="#e8e6e3" opacity="1.000000" stroke="none" 
	d="
M650.849121,107.264221 
	C651.833862,110.013000 652.616699,112.475967 653.834839,114.700600 
	C660.728760,127.291016 667.564514,139.919281 674.807190,152.308365 
	C676.554443,155.297241 675.777710,156.793335 673.684326,158.560120 
	C673.444946,158.762177 673.097595,158.833984 672.804993,158.975693 
	C657.975220,166.154877 661.753479,167.051300 655.155334,153.690155 
	C648.978516,141.182083 642.957764,128.596909 636.763245,115.828972 
	C636.763245,126.785225 636.754944,137.275940 636.767395,147.766632 
	C636.772339,151.927185 637.455261,156.207748 636.693054,160.217636 
	C635.748840,165.184387 630.570801,163.669525 627.726257,163.505951 
	C624.641602,163.328568 618.907715,165.307419 618.389832,160.086014 
	C617.710327,153.235504 618.658752,146.223053 618.915100,139.280563 
	C618.982544,137.454697 619.155212,135.629837 619.152527,133.804688 
	C619.110107,105.155968 619.112610,76.506805 618.905029,47.859180 
	C618.879211,44.288204 620.317322,43.355690 623.310608,41.697628 
	C630.956665,37.462311 635.684509,40.217960 641.263794,45.681168 
	C649.572876,53.817314 658.839905,60.982613 667.787231,68.455833 
	C671.470215,71.532074 672.266174,80.166130 668.967346,84.295921 
	C662.945618,91.834450 656.889771,99.345726 650.849121,107.264221 
M635.847473,65.712494 
	C635.847473,77.093758 635.847473,88.475029 635.847473,99.856293 
	C636.246399,99.952942 636.645264,100.049591 637.044189,100.146240 
	C642.791321,92.944138 648.538452,85.742043 654.625671,78.113701 
	C648.402893,72.192200 642.468689,66.545311 635.848511,60.245697 
	C635.848511,62.543633 635.848511,63.688156 635.847473,65.712494 
z"/>
<path fill="#e8e6e3" opacity="1.000000" stroke="none" 
	d="
M598.827026,119.874168 
	C592.872681,133.786453 587.015015,147.345123 580.927856,160.799942 
	C580.319397,162.144745 578.320496,163.700256 576.959595,163.707169 
	C572.892456,163.727844 568.821777,163.027161 564.658386,162.598465 
	C561.403625,147.932892 554.050354,134.755371 547.832581,121.107956 
	C545.424011,115.821457 542.799438,110.522484 541.320923,104.951172 
	C539.461975,97.946068 544.236389,92.217430 546.673645,86.158134 
	C551.979919,72.966644 558.031677,60.064678 563.005493,46.755428 
	C564.783020,41.999046 566.800720,40.645489 571.661499,40.858055 
	C581.576538,41.291649 581.181458,41.154648 584.919434,50.292923 
	C589.540161,61.588902 594.972534,72.551102 599.957520,83.700706 
	C602.004089,88.278114 604.762695,92.836662 605.419250,97.646500 
	C606.002625,101.920372 604.474915,106.630714 603.218506,110.956543 
	C602.343567,113.969383 600.351807,116.657883 598.827026,119.874168 
M561.353455,110.055695 
	C565.535034,120.094162 569.716614,130.132629 573.944580,140.282455 
	C578.007751,129.789474 581.812500,119.867149 585.695251,109.975403 
	C587.823425,104.553558 588.739624,99.369217 586.267456,93.565231 
	C581.714172,82.875450 577.805542,71.911148 573.430054,60.546566 
	C569.420898,70.809219 565.882629,80.700645 561.690002,90.306442 
	C558.879089,96.746521 557.115173,102.879601 561.353455,110.055695 
z"/>
<path fill="#e8e6e3" opacity="1.000000" stroke="none" 
	d="
M412.650696,58.405197 
	C417.621826,63.753571 422.376221,68.818733 427.139648,73.875412 
	C430.688690,77.642975 430.863739,86.172798 427.334442,89.980820 
	C418.336548,99.689316 409.316498,109.377922 400.224609,118.998192 
	C397.295563,122.097443 395.496338,125.340248 395.768982,129.878098 
	C396.355164,139.633026 396.422272,149.418045 396.880615,159.182343 
	C397.037384,162.522308 396.183899,164.123611 392.477203,163.911148 
	C387.787964,163.642365 383.071625,163.846207 379.192566,163.846207 
	C379.192566,145.108490 379.191345,127.702324 379.192871,110.296158 
	C379.194275,94.799988 379.286774,79.303055 379.153046,63.808071 
	C379.107513,58.534328 378.635559,53.250965 378.090759,47.999767 
	C377.759857,44.810635 379.005310,43.076275 381.905151,42.083511 
	C385.283203,40.927040 388.605194,39.606750 392.838623,38.026367 
	C399.112732,44.458199 405.775299,51.288277 412.650696,58.405197 
M395.860992,88.598549 
	C395.860992,92.658966 395.860992,96.719391 395.860992,100.779808 
	C401.993347,95.393173 407.036774,89.610428 411.881378,83.665680 
	C412.594330,82.790840 413.018066,80.589966 412.469208,79.946724 
	C407.283203,73.869064 401.857239,67.996193 395.859680,61.354744 
	C395.859680,70.706749 395.859680,79.172272 395.860992,88.598549 
z"/>
<path fill="#e8e6e3" opacity="1.000000" stroke="none" 
	d="
M687.242676,62.048042 
	C686.804199,55.304558 686.366089,49.053230 685.870911,41.987457 
	C689.179260,41.987457 692.092346,42.050167 695.001953,41.976063 
	C704.938782,41.722996 714.873108,41.353668 724.810974,41.166634 
	C730.081665,41.067429 731.247742,42.404991 730.811646,47.673656 
	C730.595398,50.286598 730.730225,53.190887 729.580505,55.369228 
	C728.851746,56.750114 726.033691,57.730968 724.180786,57.687641 
	C717.946411,57.541859 711.724731,56.856853 704.644043,56.312485 
	C704.644043,69.167625 704.644043,81.338951 704.644043,93.987518 
	C709.773560,93.987518 715.526306,94.122993 721.268616,93.936386 
	C724.677124,93.825615 726.370361,94.917854 725.839722,98.507797 
	C725.791565,98.833618 725.836182,99.173126 725.837402,99.506287 
	C725.877197,110.218689 725.876465,110.239052 715.190857,109.866280 
	C711.538452,109.738861 707.890564,109.481026 704.458252,109.294601 
	C704.458252,122.453621 704.458252,135.478973 704.458252,149.200195 
	C714.079102,148.686752 723.042603,148.208374 732.786926,147.688339 
	C732.786926,151.878342 733.167786,156.007065 732.590088,159.996994 
	C732.374207,161.487854 729.945984,163.766861 728.487366,163.797089 
	C714.545837,164.086151 700.595764,163.969833 687.243103,163.969833 
	C687.243103,129.940292 687.243103,96.240242 687.242676,62.048042 
z"/>
<path fill="#e8e6e3" opacity="1.000000" stroke="none" 
	d="
M441.139160,151.987656 
	C441.144623,115.369812 441.144623,79.248108 441.144623,42.128540 
	C455.266937,42.128540 469.816681,42.128540 484.831787,42.128540 
	C484.831787,46.486668 485.098236,50.791981 484.760345,55.049328 
	C484.386780,59.756477 480.438599,57.745426 478.124207,57.701832 
	C471.913757,57.584831 465.714294,56.883163 458.629028,56.346989 
	C458.629028,69.300636 458.629028,81.452812 458.629028,93.892921 
	C463.971649,93.892921 469.789124,94.490135 475.408813,93.692963 
	C479.478302,93.115685 480.536560,94.955223 480.760071,97.839592 
	C480.971497,100.568092 480.123993,103.361198 480.066742,106.132584 
	C480.001831,109.276726 478.432526,110.035927 475.607819,109.883202 
	C471.135834,109.641388 466.650543,109.600952 462.170410,109.579712 
	C460.819824,109.573303 459.467529,109.913048 458.825500,109.999115 
	C458.825500,122.188309 458.724213,133.951019 458.989105,145.705460 
	C459.014374,146.826828 461.338989,148.846481 462.575989,148.831039 
	C468.991730,148.750961 475.419220,148.321060 481.805267,147.654892 
	C485.457794,147.273895 487.331390,147.187180 487.174652,152.126846 
	C486.749115,165.534470 487.479218,163.814499 474.605438,163.827362 
	C463.635895,163.838333 452.666321,163.829620 441.133698,163.829620 
	C441.133698,159.991547 441.133698,156.237671 441.139160,151.987656 
z"/>
<path fill="#e8e6e3" opacity="1.000000" stroke="none" 
	d="
M326.171844,144.004456 
	C326.161102,135.301956 325.594604,127.043503 326.279205,118.890099 
	C327.179474,108.168793 323.370178,98.717102 319.695038,89.195679 
	C314.865814,76.684334 309.545929,64.362968 304.647552,51.877331 
	C303.258026,48.335411 302.790802,44.922329 308.305695,43.859104 
	C311.910156,43.164188 315.277466,41.239235 319.352356,39.627365 
	C324.649139,56.304836 329.815338,72.571053 335.289276,89.806351 
	C338.133881,80.996132 340.773468,73.181419 343.169891,65.292839 
	C345.371887,58.044323 347.206177,50.683712 349.432007,43.443066 
	C350.099854,41.270626 351.164703,39.111832 354.471375,40.781208 
	C357.044373,42.080208 360.025330,42.546444 362.767487,43.541275 
	C366.236206,44.799679 367.630127,46.657108 365.916748,50.704239 
	C360.069702,64.515388 354.464630,78.433937 349.040863,92.417633 
	C345.258270,102.170052 342.091431,112.047844 342.747711,122.849083 
	C343.460876,134.587097 343.391144,146.370773 343.920074,158.122955 
	C344.107971,162.297409 342.285767,163.832077 338.475830,163.832642 
	C334.187347,163.833267 329.898834,163.832779 325.138092,163.832779 
	C325.492096,157.216339 325.832428,150.855789 326.171844,144.004456 
z"/>
<path fill="#e8e6e3" opacity="1.000000" stroke="none" 
	d="
M123.840149,70.009201 
	C123.896393,94.491905 123.901917,118.477028 124.048111,142.461304 
	C124.081276,147.902191 124.409782,153.360413 124.979683,158.770905 
	C125.267456,161.502884 123.907051,162.618668 121.839882,162.751495 
	C117.503853,163.030106 113.125038,163.078247 108.799614,162.749588 
	C107.839378,162.676620 106.235138,160.629379 106.266815,159.529770 
	C106.695557,144.647659 107.546967,129.776932 107.911049,114.894020 
	C108.220444,102.246407 108.152504,89.585495 108.023193,76.932800 
	C107.950645,69.834984 107.414543,62.741901 107.065773,55.180119 
	C100.910065,55.508610 94.769936,55.836269 88.159706,56.189014 
	C88.159706,51.984421 87.985092,48.353264 88.208435,44.746754 
	C88.435455,41.080757 90.617409,40.035660 94.274925,40.096443 
	C107.798431,40.321182 121.328621,40.117615 134.854279,40.262543 
	C137.488815,40.290768 142.197113,40.748047 142.386429,41.709156 
	C143.242981,46.057587 143.699051,50.950958 142.348099,54.996487 
	C141.918579,56.282700 135.456741,55.611927 131.751953,55.706993 
	C130.812500,55.731102 129.873413,55.162457 128.911591,55.030376 
	C125.520576,54.564709 123.435104,55.475842 123.746208,59.519478 
	C124.001129,62.832897 123.825272,66.179459 123.840149,70.009201 
z"/>
<path fill="#e8e6e3" opacity="1.000000" stroke="none" 
	d="
M266.003296,40.987629 
	C275.264893,40.709873 284.032410,40.534771 292.787506,40.106171 
	C296.531189,39.922901 298.131653,40.939796 298.105347,45.074322 
	C298.032104,56.576111 296.465118,57.986713 284.785065,55.747238 
	C283.370544,55.476032 281.969788,55.133202 279.821228,54.660419 
	C279.453552,58.275597 278.856506,61.450539 278.852722,64.626190 
	C278.830048,83.594765 278.856506,102.564362 279.045135,121.531845 
	C279.158783,132.957870 279.547943,144.382187 279.907990,155.804276 
	C280.096710,161.792191 277.083832,164.612839 271.056061,163.836487 
	C270.893707,163.815567 270.728882,163.807205 270.569214,163.773758 
	C267.578339,163.147324 262.443024,163.176727 262.008820,161.762909 
	C260.812500,157.867737 261.556519,153.367813 261.598938,149.107742 
	C261.608612,148.132889 262.007050,147.162140 262.018524,146.187042 
	C262.358673,117.297287 262.622345,88.406494 263.045074,59.518009 
	C263.107941,55.219837 261.562469,54.174824 257.667816,55.491737 
	C256.461456,55.899643 255.054596,55.746269 253.737534,55.790150 
	C241.375366,56.201969 243.302139,57.750580 243.135452,44.533150 
	C243.090866,40.997368 245.098694,39.939278 248.257126,40.111538 
	C254.004974,40.425014 259.755066,40.697838 266.003296,40.987629 
z"/>
<path fill="#e8e6e3" opacity="1.000000" stroke="none" 
	d="
M521.814941,46.706223 
	C526.636414,37.619007 526.636414,37.619007 535.055725,43.087193 
	C541.074219,46.996101 541.124817,47.028011 537.249573,53.179047 
	C528.768311,66.640953 520.441895,80.208107 511.621521,93.445236 
	C507.547485,99.559288 508.083069,104.311928 512.281006,110.227768 
	C521.854675,123.719055 530.751221,137.694214 539.731567,151.596329 
	C540.388977,152.614120 540.090637,155.186279 539.236938,156.070312 
	C536.502441,158.902008 533.423584,161.451035 530.241699,163.787918 
	C526.467407,166.559952 524.782837,163.578903 523.129089,160.792877 
	C518.078064,152.283340 513.077271,143.742584 507.909485,135.304199 
	C502.756866,126.890541 496.681274,118.936676 492.508881,110.075600 
	C490.613983,106.051376 490.679382,99.467911 492.718933,95.527443 
	C499.415192,82.590149 507.409851,70.323746 514.936279,57.817993 
	C517.118042,54.192719 519.402771,50.629391 521.814941,46.706223 
z"/>
<path fill="#e8e6e3" opacity="1.000000" stroke="none" 
	d="
M67.884705,70.808197 
	C76.436752,66.537422 81.765373,71.194511 81.718132,81.501740 
	C69.054100,87.877258 56.751041,94.071053 44.447987,100.264847 
	C44.473114,100.928802 44.498245,101.592758 44.523373,102.256714 
	C53.061829,106.870094 61.557732,111.565063 70.161865,116.052528 
	C73.165604,117.619133 76.338417,119.104027 79.610954,119.848473 
	C83.298996,120.687439 83.316986,122.339699 81.915894,125.100548 
	C80.814888,127.270096 79.867508,129.518127 78.867943,131.738525 
	C77.075844,135.719360 74.077888,135.944962 70.784218,134.011246 
	C56.610378,125.689819 42.495232,117.268303 28.370008,108.864250 
	C23.654366,106.058594 23.697241,97.787331 28.339638,94.979195 
	C41.455402,87.045586 54.535748,79.053413 67.884705,70.808197 
z"/>
<path fill="#e8e6e3" opacity="1.000000" stroke="none" 
	d="
M203.951538,96.488373 
	C206.027771,105.412666 205.799454,106.207245 195.760666,112.463364 
	C184.439590,119.518585 172.915985,126.249809 161.454330,133.078094 
	C155.791580,136.451675 153.439346,135.782562 150.548141,129.810226 
	C149.356781,127.349274 148.623505,124.666557 147.589630,121.831764 
	C161.251862,116.612274 174.112488,111.003616 186.912399,101.237495 
	C173.458542,94.288490 161.142090,87.926964 147.707718,80.988029 
	C149.041779,78.319710 150.794678,74.632088 152.711823,71.031921 
	C154.503174,67.668022 157.473099,67.628014 160.237305,69.298279 
	C174.539749,77.940506 188.743423,86.746223 202.976868,95.502502 
	C203.255432,95.673882 203.477203,95.937576 203.951538,96.488373 
z"/>
<path fill="#0a0a0f" opacity="1.000000" stroke="none" 
	d="
M635.848022,65.272583 
	C635.848511,63.688156 635.848511,62.543633 635.848511,60.245697 
	C642.468689,66.545311 648.402893,72.192200 654.625671,78.113701 
	C648.538452,85.742043 642.791321,92.944138 637.044189,100.146240 
	C636.645264,100.049591 636.246399,99.952942 635.847473,99.856293 
	C635.847473,88.475029 635.847473,77.093758 635.848022,65.272583 
z"/>
<path fill="#0a0a0f" opacity="1.000000" stroke="none" 
	d="
M561.096313,109.750778 
	C557.115173,102.879601 558.879089,96.746521 561.690002,90.306442 
	C565.882629,80.700645 569.420898,70.809219 573.430054,60.546566 
	C577.805542,71.911148 581.714172,82.875450 586.267456,93.565231 
	C588.739624,99.369217 587.823425,104.553558 585.695251,109.975403 
	C581.812500,119.867149 578.007751,129.789474 573.944580,140.282455 
	C569.716614,130.132629 565.535034,120.094162 561.096313,109.750778 
z"/>
<path fill="#0a0a0f" opacity="1.000000" stroke="none" 
	d="
M395.860352,88.118172 
	C395.859680,79.172272 395.859680,70.706749 395.859680,61.354744 
	C401.857239,67.996193 407.283203,73.869064 412.469208,79.946724 
	C413.018066,80.589966 412.594330,82.790840 411.881378,83.665680 
	C407.036774,89.610428 401.993347,95.393173 395.860992,100.779808 
	C395.860992,96.719391 395.860992,92.658966 395.860352,88.118172 
z"/>
</svg>